<?xml version="1.0"?>
<svg width="291.718" height="80.674" xmlns="http://www.w3.org/2000/svg" xmlns:svg="http://www.w3.org/2000/svg">
 <g class="layer">
  <title>Layer 1</title>
  <g data-name="Group 79" id="Group_79">
   <g data-name="Group 1" id="Group_1">
    <g data-name="Group 1" id="Group_1-2">
     <rect data-name="Rectangle 4" fill="#ffffff" height="22.82" id="Rectangle_4" transform="matrix(1 0 0 1 0 0) matrix(0.707107 0.707107 -0.707107 0.707107 32.7439 -14.9504)" width="22.82" x="21.95" y="21"/>
     <path d="m17.28,31.56l16.13,16.13l-16.13,16.13l-14.06,-14.06a2.07,2.07 0 0 1 0,-4.13l14.06,-14.06l0,-0.01z" data-name="Rectangle 11" fill="#bfbfbf" id="Rectangle_11" transform="matrix(1 0 0 1 0 0)"/>
     <rect data-name="Rectangle 7" fill="#ffffff" height="22.82" id="Rectangle_7" transform="matrix(1 0 0 1 0 0) matrix(0.707107 0.707107 -0.707107 0.707107 41.5892 -46.3053)" width="22.82" x="60.33" y="26.25"/>
     <rect data-name="Rectangle 9" fill="#bfbfbf" height="22.82" id="Rectangle_9" transform="matrix(0.707107 0.707107 -0.707107 0.707107 47.8779 -21.2192)" width="22.82" x="38.14" y="35.78"/>
     <path d="m53.92,53.1l22.82,0l0,19.89a2.93,2.93 0 0 1 -2.93,2.92l-19.89,0l0,-22.81z" data-name="Rectangle 13" fill="#ffffff" id="Rectangle_13" transform="rotate(45 65.33 64.505)"/>
     <path d="m21.65,52.6l22.82,0l0,19.89a2.93,2.93 0 0 1 -2.93,2.93l-19.89,0l0,-22.82z" data-name="Rectangle 14" fill="#ffffff" id="Rectangle_14" transform="rotate(45 33.06 64.01)"/>
     <path d="m97.55,47.91l22.81,0l0,19.89a2.93,2.93 0 0 1 -2.92,2.93l-19.89,0l0,-22.82z" data-name="Rectangle 15" fill="#ffffff" id="Rectangle_15" transform="rotate(45 97.5467 47.9102)"/>
     <rect data-name="Rectangle 10" fill="#bfbfbf" height="22.82" id="Rectangle_10" transform="matrix(1 0 0 1 0 0) matrix(0.707107 0.707107 -0.707107 0.707107 59.7471 -43.8623)" width="22.82" x="68.76" y="37.19"/>
     <path d="m114.18,31.28l14.06,14.06a2.07,2.07 0 0 1 0.01,4.14l-14.06,14.06l-16.14,-16.14l16.13,-16.13z" data-name="Rectangle 12" fill="#bfbfbf" id="Rectangle_12" transform="matrix(1 0 0 1 0 0)"/>
     <rect data-name="Rectangle 8" fill="#ffffff" height="22.82" id="Rectangle_8" transform="matrix(1 0 0 1 0 0) matrix(0.707107 0.707107 -0.707107 0.707107 50.8243 -60.1006)" width="22.82" x="86.55" y="19.89"/>
     <path d="m51.1,1.34l14.58,14.58l-16.13,16.13l-16.14,-16.14l14.57,-14.57a1.55,1.55 0 0 1 3.11,0z" data-name="Rectangle 5" fill="#ffffff" id="Rectangle_5" opacity="0.4"/>
     <path d="m51.21,1.31l14.58,14.58l-16.13,16.13l-16.14,-16.14l14.57,-14.57a1.55,1.55 0 0 1 3.11,0z" data-name="Rectangle 6" fill="#bfbfbf" id="Rectangle_6" transform="matrix(1 0 0 1 0 0)"/>
     <path d="m83.41,0.76l14.58,14.58l-16.13,16.13l-16.14,-16.14l14.57,-14.57a1.55,1.55 0 0 1 3.11,0z" data-name="Rectangle 6" fill="#bfbfbf" id="svg_2"/>
    </g>
   </g>
  </g>
  <text fill="#ffffff" font-family="Noto Sans JP" font-size="24" id="svg_1" stroke-width="0" text-anchor="start" transform="matrix(3.25152 0 0 2.75963 -315.701 -119.621)" x="139.97" xml:space="preserve" y="68.29">ERR</text>
 </g>
</svg>