<svg id="Group_1" data-name="Group 1" xmlns="http://www.w3.org/2000/svg" width="129.075" height="80.674" viewBox="0 0 129.075 80.674">
  <g id="Group_1-2" data-name="Group 1" transform="translate(0 0)">
    <rect id="Rectangle_4" data-name="Rectangle 4" width="22.818" height="22.818" transform="translate(32.269 16.135) rotate(45)" fill="#28256d" opacity="0.6"/>
    <path id="Rectangle_11" data-name="Rectangle 11" d="M0,0H22.818V22.818H2.926A2.926,2.926,0,0,1,0,19.892Z" transform="translate(16.135 32.269) rotate(45)" fill="#28256d" opacity="0.8"/>
    <rect id="Rectangle_7" data-name="Rectangle 7" width="22.818" height="22.818" transform="translate(64.538 16.135) rotate(45)" fill="#28256d" opacity="0.6"/>
    <rect id="Rectangle_9" data-name="Rectangle 9" width="22.818" height="22.818" transform="translate(48.403 32.269) rotate(45)" fill="#28256d" opacity="0.8"/>
    <path id="Rectangle_13" data-name="Rectangle 13" d="M0,0H22.818V19.892a2.926,2.926,0,0,1-2.926,2.926H0Z" transform="translate(64.538 48.404) rotate(45)" fill="#28256d"/>
    <path id="Rectangle_14" data-name="Rectangle 14" d="M0,0H22.818V19.892a2.926,2.926,0,0,1-2.926,2.926H0Z" transform="translate(32.269 48.404) rotate(45)" fill="#28256d"/>
    <path id="Rectangle_15" data-name="Rectangle 15" d="M0,0H22.818V19.892a2.926,2.926,0,0,1-2.926,2.926H0Z" transform="translate(96.806 48.404) rotate(45)" fill="#28256d"/>
    <rect id="Rectangle_10" data-name="Rectangle 10" width="22.818" height="22.818" transform="translate(80.672 32.269) rotate(45)" fill="#28256d" opacity="0.8"/>
    <path id="Rectangle_12" data-name="Rectangle 12" d="M0,0H19.892a2.926,2.926,0,0,1,2.926,2.926V22.818H0Z" transform="translate(112.94 32.269) rotate(45)" fill="#28256d" opacity="0.8"/>
    <rect id="Rectangle_8" data-name="Rectangle 8" width="22.818" height="22.818" transform="translate(96.806 16.135) rotate(45)" fill="#28256d" opacity="0.6"/>
    <path id="Rectangle_5" data-name="Rectangle 5" d="M2.194,0H22.818V22.818H0V2.2A2.194,2.194,0,0,1,2.194,0Z" transform="translate(48.403 0) rotate(45)" fill="#28256d" opacity="0.4"/>
    <path id="Rectangle_6" data-name="Rectangle 6" d="M2.194,0H22.818V22.818H0V2.2A2.194,2.194,0,0,1,2.194,0Z" transform="translate(80.672 0) rotate(45)" fill="#28256d" opacity="0.4"/>
  </g>
</svg>
